<svg width="512" height="512" viewBox="0 0 512 512" fill="none" xmlns="http://www.w3.org/2000/svg">
  <rect x="24" y="24" width="464" height="464" rx="112" fill="#163A9A"/>
  <rect x="20" y="16" width="472" height="472" rx="112" fill="#1D4ED8"/>
  <rect x="96" y="100" width="268" height="272" rx="42" fill="#FFFFFF"/>
  <rect x="116" y="128" width="228" height="224" rx="28" stroke="#1D4ED8" stroke-width="18"/>
  <path d="M150 292L202 210L268 246L304 176" stroke="#F59E0B" stroke-width="18" stroke-linecap="round" stroke-linejoin="round"/>
  <circle cx="150" cy="292" r="17" fill="#F59E0B"/>
  <circle cx="202" cy="210" r="17" fill="#F59E0B"/>
  <circle cx="268" cy="246" r="17" fill="#F59E0B"/>
  <circle cx="304" cy="176" r="17" fill="#F59E0B"/>
  <circle cx="150" cy="292" r="9" fill="#D97706"/>
  <circle cx="202" cy="210" r="9" fill="#D97706"/>
  <circle cx="268" cy="246" r="9" fill="#D97706"/>
  <circle cx="304" cy="176" r="9" fill="#D97706"/>
  <path d="M150 322L202 264L246 304L306 220L326 336H150V322Z" fill="#DBEAFE"/>
  <circle cx="284" cy="166" r="20" fill="#93C5FD"/>
  <circle cx="366" cy="364" r="80" fill="#059669"/>
  <circle cx="358" cy="356" r="80" fill="#10B981"/>
  <path d="M320 355L352 387L402 324" stroke="#FFFFFF" stroke-width="22" stroke-linecap="round" stroke-linejoin="round"/>
</svg>
